HIERARCHY
ROOT Hips
{
	OFFSET -0.179506 -22.333345 2.821913
	CHANNELS 6 Xposition Yposition Zposition Zrotation Yrotation Xrotation 
	JOINT LeftUpLeg
	{
		OFFSET 6.951974 -9.140623 -0.681533
		CHANNELS 3 Zrotation Yrotation Xrotation
		JOINT LeftLeg
		{
			OFFSET 3.427654 -37.519855 -0.449580
			CHANNELS 3 Zrotation Yrotation Xrotation
			JOINT LeftFoot
			{
				OFFSET -1.359570 -39.796059 -4.369333
				CHANNELS 3 Zrotation Yrotation Xrotation
				JOINT LeftToe
				{
					OFFSET 2.635814 -5.579078 11.928840
					CHANNELS 3 Zrotation Yrotation Xrotation
					End Site
					{
						OFFSET 0.000000 0.000000 0.000000
					}
				}
			}
		}
	}
	JOINT RightUpLeg
	{
		OFFSET -6.767048 -9.052170 -0.431982
		CHANNELS 3 Zrotation Yrotation Xrotation
		JOINT RightLeg
		{
			OFFSET -3.829005 -38.256897 -0.885003
			CHANNELS 3 Zrotation Yrotation Xrotation
			JOINT RightFoot
			{
				OFFSET 1.577377 -39.841461 -4.231180
				CHANNELS 3 Zrotation Yrotation Xrotation
				JOINT RightToe
				{
					OFFSET -2.537174 -4.814398 12.334795
					CHANNELS 3 Zrotation Yrotation Xrotation
					End Site
					{
						OFFSET 0.000000 0.000000 0.000000
					}
				}
			}
		}
	}
	JOINT Spine
	{
		OFFSET -0.253288 10.896323 -2.669631
		CHANNELS 3 Zrotation Yrotation Xrotation
		JOINT Spine1
		{
			OFFSET 0.548704 13.518043 0.109247
			CHANNELS 3 Zrotation Yrotation Xrotation
			JOINT Spine2
			{
				OFFSET 0.145701 5.292222 2.542457
				CHANNELS 3 Zrotation Yrotation Xrotation
				JOINT Neck
				{
					OFFSET -0.277840 21.387037 -4.285703
					CHANNELS 3 Zrotation Yrotation Xrotation
					JOINT Head
					{
						OFFSET 0.515184 6.496960 5.134897
						CHANNELS 3 Zrotation Yrotation Xrotation
						End Site
						{
							OFFSET 0.000000 0.000000 0.000000
						}
					}
				}
				JOINT LeftShoulder
				{
					OFFSET 7.884473 12.174932 -3.408961
					CHANNELS 3 Zrotation Yrotation Xrotation
					JOINT LeftArm
					{
						OFFSET 9.097692 3.046888 -0.886815
						CHANNELS 3 Zrotation Yrotation Xrotation
						JOINT LeftForeArm
						{
							OFFSET 25.961220 -1.277207 -2.745643
							CHANNELS 3 Zrotation Yrotation Xrotation
							JOINT LeftHand
							{
								OFFSET 24.923361 0.898606 -0.117091
								CHANNELS 3 Zrotation Yrotation Xrotation
								End Site
								{
									OFFSET 0.000000 0.000000 0.000000
								}
							}
						}
					}
				}
				JOINT RightShoulder
				{
					OFFSET -8.175920 11.883285 -3.861528
					CHANNELS 3 Zrotation Yrotation Xrotation
					JOINT RightArm
					{
						OFFSET -9.601238 3.255117 -0.914307
						CHANNELS 3 Zrotation Yrotation Xrotation
						JOINT RightForeArm
						{
							OFFSET -25.374195 -1.332924 -2.140099
							CHANNELS 3 Zrotation Yrotation Xrotation
							JOINT RightHand
							{
								OFFSET -25.529810 0.777228 -0.555919
								CHANNELS 3 Zrotation Yrotation Xrotation
								End Site
								{
									OFFSET 0.000000 0.000000 0.000000
								}
							}
						}
					}
				}
			}
		}
	}
}
MOTION
Frames: 13
Frame Time: 0.033333
-80.478798 182.778412 94.332268 -125.767090 2.770107 93.198066 -4.513204 -7.673744 -28.962353 -7.218725 10.104017 11.377225 3.812487 11.701825 -9.580911 nan nan nan 8.667511 -0.733370 17.582552 10.450358 2.806233 20.870646 13.589253 3.875987 2.256564 nan nan nan -0.118665 17.717465 9.633056 1.761464 3.528778 17.162731 -0.582406 3.096857 -5.132901 6.004049 -11.055919 3.524205 5.339847 -17.940505 -19.810998 -8.880966 14.356634 4.840583 -64.046753 33.804538 10.540711 15.231171 -11.864792 26.334592 -39.758755 -7.263550 8.514138 16.677723 7.521628 -1.176175 41.990141 7.705693 9.366147 -35.009932 53.805914 -24.944551 11.800547 26.132315 -18.667939 
-81.590729 184.058746 94.207207 -126.031443 3.342383 92.982494 -4.069760 -7.867936 -28.309852 -6.967327 9.307391 12.487813 5.519647 11.823564 -10.575598 nan nan nan 8.690462 -1.094593 18.422298 10.633421 2.427632 21.245632 14.023180 4.111157 3.380761 nan nan nan -0.071607 17.456546 9.262188 2.252433 3.376699 17.462351 -0.564962 3.311081 -5.638221 5.974162 -10.651200 3.342782 4.729088 -17.924642 -19.253004 -8.944450 14.632124 4.992082 -64.524866 34.470926 10.250453 15.516021 -11.474796 27.063140 -40.827221 -6.796826 8.758156 17.105944 7.427897 -1.149937 41.737403 7.527427 9.282456 -34.626521 54.094408 -24.510443 12.634312 26.491160 -17.865106 
-82.679276 185.307663 94.016129 -126.068559 3.850204 92.934642 -3.654462 -8.186454 -28.137473 -6.648074 8.827712 14.090617 7.310005 12.453375 -11.563691 nan nan nan 8.721377 -1.448002 18.883283 10.687889 1.835371 21.893801 14.380786 4.075414 4.529062 nan nan nan -0.121130 17.030401 8.816841 2.727345 3.080838 17.501232 -0.581061 3.417037 -5.825055 6.040606 -10.304219 2.854518 4.203769 -17.731291 -18.457430 -9.035918 14.887358 5.015966 -65.139921 35.127175 9.903549 15.704949 -10.978220 27.593585 -41.456651 -6.564607 8.570816 17.510840 7.398539 -1.380142 41.661399 7.365566 9.291346 -34.036834 54.410703 -24.249695 12.981523 26.762335 -17.352791 
-83.733604 186.540482 93.818062 -126.003779 4.176578 92.868811 -3.368086 -8.368771 -28.160060 -6.528907 8.384451 16.083526 8.374430 13.264072 -12.930225 nan nan nan 8.494672 -1.956587 19.010551 10.714178 1.147813 23.085815 14.390419 3.533877 5.297777 nan nan nan -0.259989 16.839689 8.543926 3.134746 2.771804 17.224605 -0.483051 3.111311 -5.532105 6.104968 -10.073579 2.200768 3.711356 -17.370177 -17.542921 -9.290984 14.824675 5.303788 -66.234856 35.312790 9.141921 15.839694 -10.249765 27.468439 -41.300274 -5.813909 8.364328 17.985422 7.613560 -1.546466 41.510954 7.163816 9.040271 -33.374980 54.909671 -24.420646 12.874758 26.674138 -17.364260 
-84.755867 187.740128 93.637291 -125.900427 4.242135 92.722726 -3.205945 -8.698015 -28.138001 -6.641787 7.824438 18.042603 9.339611 14.116429 -14.106760 nan nan nan 7.880728 -2.521895 18.917479 10.784867 0.411093 24.729637 13.956723 2.533841 5.686314 nan nan nan -0.468460 16.649317 8.360811 3.405191 2.573547 17.201914 -0.358058 2.963663 -5.442634 6.323717 -10.139237 1.295502 3.297252 -16.925665 -17.030966 -9.544338 14.757934 5.069510 -66.768192 35.456159 9.392395 15.862690 -9.716936 27.787489 -42.269340 -4.663374 7.770011 18.220472 7.525846 -1.965162 41.857004 7.010283 9.234156 -33.268706 54.801980 -25.487023 13.813982 24.839663 -19.802205 
-85.746628 188.877899 93.456017 -125.765423 4.127865 92.816579 -3.184052 -9.094100 -28.424688 -6.752992 7.362104 20.053641 9.794332 14.897341 -15.288673 nan nan nan 6.965065 -3.009805 18.247277 10.751685 -0.758773 26.903819 13.462960 1.840836 5.365950 nan nan nan -0.820927 16.537155 7.838723 3.646851 2.182529 17.631258 -0.210195 2.812626 -5.908760 5.950396 -10.558420 1.194957 3.099048 -16.214500 -16.383370 -10.360726 14.135978 5.523570 -67.553701 35.469530 9.093696 16.111521 -9.349152 28.356795 -43.291822 -4.676428 7.812286 18.892085 7.739923 -1.880556 41.868309 6.532459 9.022855 -33.485140 54.602013 -24.385261 14.053026 25.927555 -17.547988 
-86.701942 189.994110 93.300461 -125.571474 3.916767 92.948994 -3.202726 -9.493053 -28.694554 -6.902740 7.089084 21.982322 10.092548 15.577959 -16.421159 nan nan nan 6.079797 -3.385016 17.324800 10.614136 -1.894773 29.316206 12.731529 1.025021 4.541141 nan nan nan -1.166451 16.384943 7.475741 3.754845 1.849709 17.511181 -0.071591 2.636556 -5.630799 5.520004 -10.898944 0.510196 2.935224 -15.482287 -15.614647 -11.262256 13.413661 5.749605 -68.253433 35.260412 9.246345 16.302683 -9.312525 28.749304 -44.495474 -4.020521 7.086659 19.676895 7.926383 -2.125625 42.086596 6.061470 9.153742 -34.621052 54.303809 -25.346754 15.018269 25.473205 -17.806944 
-87.644455 191.097549 93.157837 -125.368951 3.654188 93.020061 -3.251000 -9.791692 -28.713902 -7.030830 7.124428 23.641888 10.282659 15.903372 -17.647856 nan nan nan 5.088526 -3.764205 16.242527 10.342118 -3.099039 32.011424 11.881458 0.374190 3.419402 nan nan nan -1.544771 16.142158 7.298378 3.781502 1.580267 17.318061 0.068857 2.499962 -5.237885 5.229019 -11.257042 -0.342839 2.936689 -14.872791 -14.981015 -12.108489 12.710277 5.835709 -68.891541 34.820073 9.561808 16.241456 -9.273880 28.638968 -44.968220 -3.283216 6.527181 20.486432 8.002949 -2.270121 42.414557 5.729724 9.244937 -35.391187 53.902511 -26.250843 15.161009 25.100215 -17.739175 
-88.595863 192.174530 93.042526 -125.257980 3.347320 93.009176 -3.363526 -10.007832 -28.354994 -7.100159 7.369075 24.807892 10.449109 16.117389 -18.868460 nan nan nan 4.024066 -4.006677 15.070871 9.997508 -4.161690 34.874944 11.065124 -0.203864 2.149424 nan nan nan -1.846030 15.838864 7.397706 3.679351 1.444928 16.894822 0.158333 2.354193 -4.655967 5.247728 -11.440017 -1.313378 2.998916 -14.322748 -14.460645 -12.969655 12.141024 5.802603 -69.392073 34.173253 9.922627 16.246544 -9.363883 28.151956 -45.321468 -2.682133 6.302898 21.324896 7.949836 -2.274063 42.821566 5.571037 9.253523 -35.993858 53.439604 -27.042094 15.405348 24.708348 -17.076220 
-89.525742 193.212112 92.950333 -125.340442 3.003645 92.982253 -3.511522 -10.138828 -27.793991 -7.218166 7.633263 25.571067 10.613759 16.374039 -19.901139 nan nan nan 2.853831 -4.102140 13.663229 9.586976 -5.066911 37.910925 10.328433 -0.771114 0.748018 nan nan nan -2.098786 15.512402 7.518560 3.505587 1.411484 16.421255 0.201652 2.250018 -3.899870 5.210334 -11.513461 -2.073531 3.180172 -13.929594 -14.141890 -13.834839 11.442259 5.713312 -69.908680 33.451463 10.528080 16.044323 -9.623576 28.266323 -45.329478 -2.221042 6.458051 22.094604 8.068375 -2.180801 43.264309 5.324338 9.348473 -36.727764 52.860984 -27.971754 15.412565 24.285199 -16.864265 
-90.441162 194.210495 92.916443 -125.526620 2.568528 92.869416 -3.872799 -10.183299 -26.904244 -7.385590 7.668104 25.834990 10.847320 16.756605 -20.676894 nan nan nan 1.605691 -3.948785 12.142843 9.248890 -5.802233 40.904481 9.513616 -1.351871 -0.607688 nan nan nan -2.457552 15.234281 7.715451 3.448993 1.387794 16.426507 0.313048 2.142800 -3.890016 5.145338 -11.842091 -2.739026 2.866602 -13.103655 -13.403310 -14.889377 10.526915 5.992779 -70.406716 32.553264 11.397638 15.654580 -9.924160 29.049689 -45.431197 -2.429623 6.152303 22.556981 8.159086 -1.842134 43.901359 5.122158 9.527899 -37.230930 51.991668 -28.766262 15.136248 24.260777 -17.261737 
-91.335579 195.162109 92.956284 -125.737816 2.175088 92.760858 -4.408436 -10.012703 -25.741754 -7.480283 7.351857 25.611956 11.087612 17.139438 -21.317531 nan nan nan 0.461973 -3.667327 10.457490 8.929522 -6.297657 43.813854 8.787015 -1.788013 -1.919604 nan nan nan -2.667906 14.927398 8.065600 3.401215 1.466771 16.493568 0.304719 2.003397 -3.989713 4.995492 -12.087494 -3.008998 2.824055 -12.505795 -13.177165 -15.671962 9.831177 5.923120 -70.759660 31.396048 12.697837 15.521994 -10.137086 29.716350 -45.913868 -3.314348 4.806511 22.807652 8.017516 -2.083748 44.830943 4.849570 10.217908 -37.383223 50.808624 -28.987600 15.151797 24.319118 -17.571824 
-92.200699 196.111450 93.048195 -125.855389 1.903563 92.821516 -4.944920 -9.617371 -24.604531 -7.499296 6.735589 25.150937 11.292688 17.447721 -21.848700 nan nan nan -0.528316 -3.593427 8.512036 8.655212 -6.528996 46.528219 8.167242 -2.171048 -3.278212 nan nan nan -2.758467 14.542065 8.395593 3.370316 1.606164 16.383933 0.265313 1.858586 -4.013288 4.743993 -12.136774 -3.140938 2.868063 -12.164856 -13.163053 -16.222315 9.385183 5.541034 -70.899547 30.162607 14.295367 15.459281 -10.418500 30.540839 -46.001896 -4.595016 3.649368 22.950743 7.704079 -2.522986 45.993739 4.464148 11.201353 -37.584690 49.488701 -28.386650 14.537662 24.518386 -18.277130 
